<svg xmlns="http://www.w3.org/2000/svg" xmlns:xlink="http://www.w3.org/1999/xlink" width="500" zoomAndPan="magnify" viewBox="0 0 375 374.999991" height="500" preserveAspectRatio="xMidYMid meet" version="1.0"><defs><g/></defs><g fill="#ffffff" fill-opacity="1"><g transform="translate(103.879107, 223.299485)"><g><path d="M 89.199219 -1.703125 L 46.019531 -112.777344 C 45.59375 -113.910156 43.605469 -113.910156 43.179688 -112.777344 L 0.140625 -1.703125 C -0.285156 -0.851562 0.285156 0 1.5625 0 L 21.019531 0 C 21.589844 0 22.300781 -0.285156 22.441406 -0.851562 L 44.597656 -64.199219 L 67.039062 -0.851562 C 67.183594 -0.285156 67.894531 0 68.320312 0 L 87.917969 0 C 88.914062 0 89.625 -0.851562 89.199219 -1.703125 Z M 89.199219 -1.703125 "/></g></g></g><g fill="#ffffff" fill-opacity="1"><g transform="translate(171.055174, 334.15889)"><g><path d="M 101.695312 -27.414062 L 123.285156 -27.414062 L 123.285156 -112.351562 C 123.285156 -112.917969 122.71875 -113.628906 121.722656 -113.628906 L 102.976562 -113.628906 C 102.40625 -113.628906 101.695312 -113.203125 101.414062 -112.777344 L 62.636719 -29.542969 L 21.875 -112.777344 C 21.730469 -113.203125 20.878906 -113.628906 20.453125 -113.628906 L 1.421875 -113.628906 C 0.425781 -113.628906 0 -112.917969 0 -112.351562 L 0 -1.277344 C 0 -0.710938 0.425781 0 1.421875 0 L 20.167969 0 C 21.019531 0 21.730469 -0.710938 21.730469 -1.277344 L 21.730469 -65.050781 L 52.554688 -5.398438 C 52.695312 -4.972656 53.546875 -4.546875 53.972656 -4.546875 L 71.445312 -4.546875 C 71.871094 -4.546875 72.578125 -4.972656 72.722656 -5.398438 L 101.695312 -63.488281 Z M 101.695312 -27.414062 "/></g></g></g><g fill="#ffffff" fill-opacity="1"><g transform="translate(107.305419, 238.584373)"><g><path d="M 2.5625 0 L -0.046875 0 L 3.65625 -10.03125 L 6.234375 -10.03125 L 9.859375 0 L 7.265625 0 L 6.734375 -1.6875 L 3.09375 -1.6875 Z M 4.890625 -7.5625 C 4.804688 -7.269531 4.710938 -6.953125 4.609375 -6.609375 C 4.515625 -6.273438 4.347656 -5.726562 4.109375 -4.96875 L 3.703125 -3.640625 L 6.109375 -3.640625 L 5.703125 -4.96875 C 5.554688 -5.375 5.414062 -5.800781 5.28125 -6.25 C 5.144531 -6.707031 5.015625 -7.144531 4.890625 -7.5625 Z M 4.890625 -7.5625 "/></g></g></g><g fill="#ffffff" fill-opacity="1"><g transform="translate(123.895045, 238.584373)"><g><path d="M 7.171875 -2.3125 L 7.171875 0 L 0.765625 0 L 0.765625 -10.03125 L 3.25 -10.03125 L 3.25 -2.3125 Z M 7.171875 -2.3125 "/></g></g></g><g fill="#ffffff" fill-opacity="1"><g transform="translate(138.021262, 238.584373)"><g><path d="M 7.6875 -2.3125 L 7.6875 0 L 0.765625 0 L 0.765625 -10.03125 L 7.53125 -10.03125 L 7.53125 -7.796875 L 3.25 -7.796875 L 3.25 -6.125 L 6.9375 -6.125 L 6.9375 -4.046875 L 3.25 -4.046875 L 3.25 -2.3125 Z M 7.6875 -2.3125 "/></g></g></g><g fill="#ffffff" fill-opacity="1"><g transform="translate(152.851313, 238.584373)"><g><path d="M 6.078125 -5.21875 L 9.40625 0 L 6.390625 0 L 4.4375 -3.203125 L 2.5625 0 L -0.15625 0 L 3.140625 -5.125 L 0.03125 -10.03125 L 3.0625 -10.03125 L 4.734375 -7.171875 L 6.4375 -10.03125 L 9.078125 -10.03125 Z M 6.078125 -5.21875 "/></g></g></g><g fill="#ffffff" fill-opacity="1"><g transform="translate(193.423381, 209.376783)"><g><path d="M 10.8125 -10.03125 L 10.8125 0 L 8.5 0 L 8.5 -6.015625 L 6.78125 -1.921875 L 4.765625 -1.921875 L 3.09375 -6.015625 L 3.09375 0 L 0.765625 0 L 0.765625 -10.03125 L 3.796875 -10.03125 L 5.828125 -4.96875 L 7.90625 -10.03125 Z M 10.8125 -10.03125 "/></g></g></g><g fill="#ffffff" fill-opacity="1"><g transform="translate(209.740588, 209.376783)"><g><path d="M 5.125 -2.15625 C 5.550781 -2.15625 6.015625 -2.203125 6.515625 -2.296875 C 7.015625 -2.390625 7.460938 -2.507812 7.859375 -2.65625 L 7.859375 -0.46875 C 7.265625 -0.226562 6.734375 -0.0664062 6.265625 0.015625 C 5.796875 0.109375 5.304688 0.15625 4.796875 0.15625 C 3.867188 0.15625 3.128906 0.0507812 2.578125 -0.15625 C 2.023438 -0.375 1.582031 -0.71875 1.25 -1.1875 C 0.96875 -1.59375 0.757812 -2.109375 0.625 -2.734375 C 0.5 -3.367188 0.4375 -4.132812 0.4375 -5.03125 C 0.4375 -6.820312 0.820312 -8.128906 1.59375 -8.953125 C 2.363281 -9.773438 3.59375 -10.1875 5.28125 -10.1875 C 5.769531 -10.1875 6.207031 -10.175781 6.59375 -10.15625 C 6.976562 -10.132812 7.320312 -10.097656 7.625 -10.046875 L 7.625 -7.890625 C 7.28125 -7.910156 6.914062 -7.925781 6.53125 -7.9375 C 6.15625 -7.945312 5.738281 -7.953125 5.28125 -7.953125 C 4.695312 -7.953125 4.257812 -7.894531 3.96875 -7.78125 C 3.6875 -7.664062 3.476562 -7.472656 3.34375 -7.203125 C 3.21875 -6.984375 3.125 -6.695312 3.0625 -6.34375 C 3.007812 -6 2.984375 -5.5625 2.984375 -5.03125 C 2.984375 -4.519531 3.007812 -4.097656 3.0625 -3.765625 C 3.113281 -3.429688 3.191406 -3.148438 3.296875 -2.921875 C 3.429688 -2.648438 3.628906 -2.453125 3.890625 -2.328125 C 4.160156 -2.210938 4.570312 -2.15625 5.125 -2.15625 Z M 5.125 -2.15625 "/></g></g></g><g fill="#ffffff" fill-opacity="1"><g transform="translate(222.602629, 209.376783)"><g><path d="M 5.125 -2.15625 C 5.550781 -2.15625 6.015625 -2.203125 6.515625 -2.296875 C 7.015625 -2.390625 7.460938 -2.507812 7.859375 -2.65625 L 7.859375 -0.46875 C 7.265625 -0.226562 6.734375 -0.0664062 6.265625 0.015625 C 5.796875 0.109375 5.304688 0.15625 4.796875 0.15625 C 3.867188 0.15625 3.128906 0.0507812 2.578125 -0.15625 C 2.023438 -0.375 1.582031 -0.71875 1.25 -1.1875 C 0.96875 -1.59375 0.757812 -2.109375 0.625 -2.734375 C 0.5 -3.367188 0.4375 -4.132812 0.4375 -5.03125 C 0.4375 -6.820312 0.820312 -8.128906 1.59375 -8.953125 C 2.363281 -9.773438 3.59375 -10.1875 5.28125 -10.1875 C 5.769531 -10.1875 6.207031 -10.175781 6.59375 -10.15625 C 6.976562 -10.132812 7.320312 -10.097656 7.625 -10.046875 L 7.625 -7.890625 C 7.28125 -7.910156 6.914062 -7.925781 6.53125 -7.9375 C 6.15625 -7.945312 5.738281 -7.953125 5.28125 -7.953125 C 4.695312 -7.953125 4.257812 -7.894531 3.96875 -7.78125 C 3.6875 -7.664062 3.476562 -7.472656 3.34375 -7.203125 C 3.21875 -6.984375 3.125 -6.695312 3.0625 -6.34375 C 3.007812 -6 2.984375 -5.5625 2.984375 -5.03125 C 2.984375 -4.519531 3.007812 -4.097656 3.0625 -3.765625 C 3.113281 -3.429688 3.191406 -3.148438 3.296875 -2.921875 C 3.429688 -2.648438 3.628906 -2.453125 3.890625 -2.328125 C 4.160156 -2.210938 4.570312 -2.15625 5.125 -2.15625 Z M 5.125 -2.15625 "/></g></g></g><g fill="#ffffff" fill-opacity="1"><g transform="translate(235.464668, 209.376783)"><g><path d="M 2.5625 0 L -0.046875 0 L 3.65625 -10.03125 L 6.234375 -10.03125 L 9.859375 0 L 7.265625 0 L 6.734375 -1.6875 L 3.09375 -1.6875 Z M 4.890625 -7.5625 C 4.804688 -7.269531 4.710938 -6.953125 4.609375 -6.609375 C 4.515625 -6.273438 4.347656 -5.726562 4.109375 -4.96875 L 3.703125 -3.640625 L 6.109375 -3.640625 L 5.703125 -4.96875 C 5.554688 -5.375 5.414062 -5.800781 5.28125 -6.25 C 5.144531 -6.707031 5.015625 -7.144531 4.890625 -7.5625 Z M 4.890625 -7.5625 "/></g></g></g><g fill="#ffffff" fill-opacity="1"><g transform="translate(250.038301, 209.376783)"><g><path d="M 3.25 -10.03125 L 3.25 0 L 0.765625 0 L 0.765625 -10.03125 Z M 3.25 -10.03125 "/></g></g></g><g fill="#ffffff" fill-opacity="1"><g transform="translate(258.789328, 209.376783)"><g><path d="M 3.25 -3.234375 L 3.25 0 L 0.765625 0 L 0.765625 -10.03125 L 4.4375 -10.03125 C 5.976562 -10.03125 7.070312 -9.769531 7.71875 -9.25 C 8.375 -8.726562 8.703125 -7.859375 8.703125 -6.640625 C 8.703125 -5.816406 8.523438 -5.144531 8.171875 -4.625 C 7.828125 -4.113281 7.304688 -3.738281 6.609375 -3.5 L 9.0625 0 L 6.078125 0 L 4 -3.234375 Z M 6.1875 -6.640625 C 6.1875 -7.066406 6.054688 -7.363281 5.796875 -7.53125 C 5.546875 -7.707031 5.09375 -7.796875 4.4375 -7.796875 L 3.25 -7.796875 L 3.25 -5.234375 L 4.4375 -5.234375 C 5.09375 -5.234375 5.546875 -5.335938 5.796875 -5.546875 C 6.054688 -5.753906 6.1875 -6.117188 6.1875 -6.640625 Z M 6.1875 -6.640625 "/></g></g></g><g fill="#ffffff" fill-opacity="1"><g transform="translate(272.755107, 209.376783)"><g><path d="M 7.6875 -2.3125 L 7.6875 0 L 0.765625 0 L 0.765625 -10.03125 L 7.53125 -10.03125 L 7.53125 -7.796875 L 3.25 -7.796875 L 3.25 -6.125 L 6.9375 -6.125 L 6.9375 -4.046875 L 3.25 -4.046875 L 3.25 -2.3125 Z M 7.6875 -2.3125 "/></g></g></g><g fill="#ffffff" fill-opacity="1"><g transform="translate(285.569164, 209.376783)"><g><path d="M 7.171875 -2.3125 L 7.171875 0 L 0.765625 0 L 0.765625 -10.03125 L 3.25 -10.03125 L 3.25 -2.3125 Z M 7.171875 -2.3125 "/></g></g></g></svg>